<svg width="59" height="61" viewBox="0 0 59 61" fill="none" xmlns="http://www.w3.org/2000/svg">
<circle cx="21.2948" cy="39.3159" r="2.06026" transform="rotate(-8.33749 21.2948 39.3159)" fill="black"/>
<circle cx="42.3067" cy="36.2378" r="2.06026" transform="rotate(-8.33749 42.3067 36.2378)" fill="black"/>
<path d="M29.9435 43.5896C29.9832 43.5131 30.0543 43.5475 30.0913 43.5667C30.092 43.567 30.0927 43.5673 30.0934 43.5677C30.1023 43.5722 30.1109 43.5737 30.121 43.5754C30.1451 43.5794 30.1775 43.5847 30.2405 43.6381C30.2598 43.6375 30.2796 43.6378 30.2984 43.6391C30.5055 43.6533 30.7022 43.7368 30.893 43.8363C30.8955 43.8362 30.8982 43.8361 30.9008 43.8359C30.9516 43.8337 31.0151 43.8315 31.0505 43.8645C31.0955 43.9064 31.1247 43.9438 31.1482 43.976C31.2972 44.0586 31.4447 44.1368 31.5967 44.186C31.6445 44.2014 31.6926 44.2139 31.7416 44.223C31.774 44.229 31.8074 44.234 31.8403 44.2379L31.7924 44.2308C31.8054 44.2312 31.8186 44.2314 31.8318 44.2315C31.861 44.2177 31.8893 44.2007 31.9158 44.1852C31.9528 44.1633 31.9862 44.1441 32.0122 44.1399C32.0751 44.1297 32.1394 44.168 32.1861 44.1968C32.1938 44.2015 32.2011 44.206 32.2077 44.2099C32.2491 44.2057 32.2904 44.201 32.332 44.1963C32.3336 44.2031 32.3351 44.2102 32.3366 44.2174C32.3558 44.3078 32.3966 44.3138 32.4612 44.3243C32.4893 44.3289 32.5219 44.3344 32.5586 44.348C32.5824 44.3568 32.588 44.3927 32.5927 44.422C32.5941 44.4306 32.5954 44.4387 32.597 44.4453C32.6024 44.468 32.6172 44.4478 32.6349 44.4239C32.6578 44.3929 32.6855 44.3558 32.7026 44.3983C32.7563 44.5338 32.8081 44.4616 32.8488 44.4072C32.8607 44.3912 32.8714 44.3769 32.8808 44.3696C32.911 44.3463 32.9379 44.3828 32.9534 44.4281C32.9658 44.4639 33.0129 44.4429 33.053 44.4114C33.0681 44.3995 33.0838 44.403 33.102 44.4073C33.1209 44.4118 33.1428 44.4171 33.1705 44.4067C33.1769 44.4043 33.183 44.402 33.1889 44.3999C33.2492 44.3792 33.281 44.3686 33.3072 44.36C33.3153 44.3573 33.323 44.3549 33.3307 44.3523C33.3549 44.3441 33.3834 44.3397 33.4122 44.3354C33.4467 44.3302 33.4817 44.325 33.5106 44.3131C33.5663 44.3501 33.6201 44.3919 33.6733 44.4336C33.7006 44.4551 33.7096 44.5346 33.6973 44.6578C33.6851 44.7811 33.653 44.9373 33.6072 45.0954C33.5614 45.2536 33.505 45.4027 33.4496 45.5135C33.3941 45.6243 33.3444 45.6869 33.3106 45.6908C33.2424 45.6983 33.1748 45.7061 33.109 45.7092C33.0289 45.7129 32.9514 45.7095 32.8782 45.6896C32.8673 45.6866 32.8565 45.6834 32.8456 45.6801C32.8114 45.6698 32.7738 45.6563 32.7365 45.6413C32.7317 45.6393 32.7268 45.6373 32.7219 45.6352C32.6708 45.6643 32.6212 45.6903 32.5895 45.6963C32.5632 45.7013 32.5509 45.6763 32.54 45.6548C32.5326 45.64 32.526 45.627 32.5164 45.6267C32.5112 45.6265 32.5039 45.6274 32.4951 45.6285C32.4591 45.6331 32.3987 45.6413 32.3551 45.592C32.3357 45.5701 32.3159 45.5309 32.2966 45.4934C32.269 45.4399 32.2424 45.3902 32.2225 45.4003C32.1877 45.4181 32.1563 45.3921 32.1283 45.3692C32.1015 45.3474 32.0778 45.3286 32.0588 45.3533C32.036 45.3828 32.0234 45.3673 32.004 45.3443C31.9908 45.3284 31.9741 45.309 31.9493 45.2986C31.9206 45.2866 31.9026 45.261 31.8871 45.2392C31.8654 45.2086 31.8485 45.1856 31.8155 45.2199C31.7789 45.258 31.7433 45.2811 31.7193 45.2651C31.7106 45.2594 31.7004 45.2583 31.6898 45.2581L31.643 45.2512C31.6399 45.2509 31.6368 45.2506 31.6337 45.2504C31.6146 45.2488 31.5945 45.2471 31.5791 45.2288C31.5664 45.2137 31.56 45.18 31.554 45.1502C31.5522 45.1409 31.5504 45.132 31.5485 45.1241C31.5364 45.1223 31.5241 45.1207 31.5119 45.1195C31.5091 45.1242 31.5061 45.1295 31.5029 45.1349C31.487 45.162 31.4677 45.1954 31.4483 45.2103C31.4176 45.234 31.3983 45.2126 31.3774 45.1899C31.3612 45.1722 31.3443 45.1538 31.3211 45.1557C31.3053 45.157 31.2858 45.1671 31.2667 45.1772C31.2383 45.1923 31.2103 45.2071 31.1946 45.1926C31.1888 45.1872 31.1861 45.1665 31.1835 45.1459C31.1835 45.1458 31.1835 45.1456 31.1834 45.1455C31.1833 45.1441 31.1831 45.1428 31.1829 45.1414C31.1379 45.1501 31.0927 45.1607 31.0475 45.1724C31.0431 45.177 31.0387 45.1815 31.0343 45.1859C31.0128 45.2077 30.9921 45.2289 30.9762 45.2608C30.959 45.2955 30.9251 45.3124 30.8897 45.3305C30.8666 45.3424 30.8425 45.3547 30.8221 45.3726C30.8101 45.3831 30.8028 45.3614 30.795 45.3389C30.7878 45.318 30.7803 45.2966 30.7689 45.3003C30.7632 45.3022 30.7564 45.31 30.7491 45.3184C30.7427 45.3257 30.7359 45.3336 30.7293 45.3381C30.7231 45.3422 30.7118 45.3296 30.6973 45.3135C30.6883 45.3036 30.6782 45.2924 30.6672 45.2829C30.6343 45.2922 30.6017 45.3012 30.5692 45.3094C30.5608 45.3268 30.5527 45.3496 30.5452 45.3792C30.5398 45.4005 30.5345 45.426 30.529 45.452C30.5216 45.4875 30.514 45.5242 30.5057 45.5533C30.4993 45.5759 30.4935 45.5847 30.4911 45.5747C30.49 45.5701 30.4897 45.5616 30.4894 45.5538C30.489 45.545 30.4887 45.5371 30.4873 45.5372C30.4863 45.5373 30.4847 45.5434 30.4827 45.5507C30.4796 45.5625 30.4755 45.5777 30.4715 45.5779C30.4567 45.5785 30.4407 45.572 30.4251 45.5656C30.4078 45.5585 30.3904 45.5516 30.3761 45.555C30.3601 45.5588 30.3399 45.5339 30.3193 45.5091C30.305 45.4918 30.291 45.4746 30.2779 45.467C30.2652 45.4596 30.2505 45.4713 30.2365 45.4827C30.2198 45.4964 30.2034 45.5097 30.192 45.4886C30.1896 45.4843 30.1882 45.4592 30.1863 45.4277C30.1849 45.4053 30.1834 45.3798 30.1812 45.3562C30.1649 45.3551 30.148 45.353 30.1317 45.35C30.1309 45.3534 30.1301 45.3568 30.1293 45.3603C30.1293 45.3604 30.1293 45.3604 30.1293 45.3605C30.1108 45.4391 30.0864 45.5467 30.0646 45.4805C30.0591 45.4636 30.0567 45.4329 30.0545 45.4053C30.0524 45.3782 30.0505 45.354 30.046 45.3487C30.0409 45.3426 30.0335 45.3588 30.0257 45.3765C30.0147 45.4012 30.0027 45.4289 29.9933 45.4022C29.9927 45.4004 29.992 45.3984 29.9912 45.3963C29.9846 45.3773 29.9738 45.3492 29.9645 45.2931C29.9311 45.2769 29.8976 45.2584 29.8643 45.2387C29.8092 45.2058 29.7549 45.1695 29.7036 45.1348C29.6785 45.1177 29.654 45.0429 29.6293 44.9229C29.604 44.8028 29.5796 44.6482 29.5649 44.4873C29.5504 44.3264 29.5499 44.1695 29.5716 44.0463C29.5914 43.9233 29.6286 43.8456 29.6676 43.8268C29.7302 43.7964 29.7911 43.7677 29.8506 43.7421C29.8538 43.7388 29.8571 43.7356 29.8602 43.7326C29.883 43.7103 29.9053 43.6653 29.9282 43.6203C29.9332 43.61 29.9383 43.5996 29.9435 43.5896Z" fill="black"/>
<path d="M36.1335 43.9005C36.1321 43.9935 36.0324 44.0231 35.9768 44.0419C35.9758 44.0422 35.9748 44.0426 35.9738 44.043C35.9608 44.0473 35.95 44.0537 35.9374 44.0615C35.9076 44.0799 35.8673 44.1043 35.7589 44.1267C35.7374 44.1461 35.7156 44.1649 35.6933 44.1831C35.6172 44.2455 35.5398 44.3047 35.462 44.3624C35.3022 44.4795 35.1342 44.5995 34.9683 44.7374C34.9663 44.7407 34.9643 44.7441 34.9623 44.7476C34.9235 44.8144 34.8792 44.8986 34.8232 44.9347C34.7517 44.9806 34.6961 45.0099 34.6492 45.0341C34.4697 45.2234 34.3093 45.4423 34.1987 45.6861C34.1949 45.6945 34.1912 45.7029 34.1875 45.7113C34.1615 45.7685 34.1408 45.8296 34.1258 45.8939C34.1103 45.9603 34.1002 46.0297 34.0948 46.1012C34.1057 46.1449 34.121 46.1867 34.1358 46.2254C34.1566 46.2798 34.1764 46.328 34.1817 46.3671C34.1942 46.4612 34.1633 46.5699 34.1421 46.6542C34.1386 46.668 34.1354 46.6809 34.1326 46.693C34.1436 46.7601 34.1563 46.8277 34.1701 46.8962C34.1638 46.901 34.1572 46.9058 34.1505 46.9107C34.0667 46.9727 34.0706 47.0463 34.0781 47.1636C34.0814 47.2148 34.0854 47.2743 34.0832 47.3456C34.0818 47.3913 34.0493 47.4172 34.0227 47.4379C34.0148 47.4441 34.0075 47.4499 34.0017 47.4556C33.9816 47.4753 34.0056 47.4936 34.0339 47.5151C34.0706 47.5429 34.1146 47.5767 34.0795 47.6267C33.9673 47.7862 34.0526 47.8496 34.1171 47.8985C34.126 47.9052 34.1345 47.9117 34.142 47.9181L34.1425 47.9303C34.1508 47.9378 34.1579 47.9452 34.1629 47.9528C34.1936 47.9991 34.1653 48.0664 34.1254 48.1165C34.0938 48.1563 34.1259 48.2347 34.1661 48.2944C34.1813 48.317 34.1816 48.3475 34.1817 48.3833C34.1818 48.4204 34.1818 48.4632 34.1983 48.509C34.2287 48.5935 34.2474 48.649 34.2614 48.6919C34.2666 48.708 34.2712 48.7222 34.2755 48.7355C34.28 48.7495 34.2841 48.7624 34.2884 48.7752C34.3019 48.8159 34.3127 48.8654 34.3238 48.9148C34.337 48.974 34.3507 49.0332 34.3696 49.0788C34.348 49.1957 34.3224 49.3144 34.2973 49.4336C34.2842 49.4948 34.2106 49.5545 34.089 49.5983C33.9674 49.6426 33.8086 49.6682 33.6439 49.6693C33.4793 49.6701 33.3202 49.6462 33.1981 49.6024C33.0762 49.5591 33.002 49.4984 32.9888 49.4355C32.9625 49.3085 32.9366 49.1802 32.9172 49.051C32.8975 48.921 32.8849 48.7891 32.8825 48.6659C32.882 48.64 32.8819 48.614 32.8823 48.5882C32.884 48.484 32.889 48.3807 32.8962 48.2782C32.8969 48.2676 32.8977 48.2571 32.8985 48.2466C32.8579 48.1606 32.82 48.0766 32.8058 48.0182C32.8008 47.9976 32.8016 47.9794 32.8056 47.963L32.8062 47.9806C32.8111 47.9573 32.8218 47.937 32.8315 47.9184C32.8432 47.8962 32.8534 47.8763 32.8506 47.8569C32.8491 47.8465 32.8458 47.8324 32.8419 47.8153C32.8259 47.7453 32.7981 47.6256 32.831 47.5105C32.8456 47.4595 32.8768 47.399 32.9067 47.3409C32.9494 47.2578 32.9896 47.1799 32.9743 47.1421C32.9474 47.0758 32.9643 46.9966 32.98 46.9263C32.9949 46.8592 33.0086 46.8005 32.9807 46.7673C32.9473 46.7277 32.9604 46.6929 32.9802 46.6414C32.994 46.6057 33.011 46.5618 33.019 46.5021C33.0284 46.4327 33.0535 46.384 33.0751 46.3432C33.1056 46.2852 33.1291 46.243 33.0969 46.1729C33.0612 46.0948 33.0439 46.0109 33.0663 45.9493C33.0764 45.9214 33.08 45.888 33.0843 45.8533C33.0901 45.8071 33.0973 45.7582 33.1216 45.7171C33.1416 45.6834 33.1799 45.6605 33.2137 45.6414C33.2243 45.6354 33.2344 45.6297 33.2435 45.624C33.2503 45.5958 33.2574 45.5676 33.2646 45.5391C33.261 45.5332 33.2569 45.5268 33.2528 45.5201C33.2319 45.4866 33.207 45.4442 33.2032 45.399C33.2023 45.3886 33.2023 45.3787 33.2032 45.3691C33.2062 45.3186 33.236 45.2818 33.2674 45.244C33.2961 45.2096 33.3262 45.1744 33.3399 45.1257C33.3492 45.0925 33.352 45.0514 33.3554 45.0105C33.3603 44.9497 33.3666 44.8893 33.3943 44.858C33.4046 44.8462 33.4283 44.843 33.4517 44.84C33.4519 44.84 33.452 44.84 33.4521 44.8401C33.4537 44.8398 33.4553 44.8396 33.4569 44.8394C33.484 44.7456 33.5125 44.6512 33.5431 44.5567C33.5426 44.5468 33.5422 44.5368 33.5418 44.5269C33.5402 44.4787 33.5394 44.4315 33.5233 44.3915C33.5059 44.3482 33.5244 44.2736 33.5465 44.1951C33.5609 44.1437 33.5769 44.0906 33.584 44.0428C33.5882 44.0148 33.619 44.0059 33.6506 43.9973C33.6801 43.9892 33.7103 43.9813 33.721 43.9571C33.7264 43.945 33.7275 43.9286 33.7287 43.911C33.7298 43.8956 33.7311 43.8791 33.7355 43.8641C33.7396 43.8502 33.7666 43.8321 33.8015 43.8094C33.8231 43.7954 33.8475 43.7797 33.8716 43.7621C33.9077 43.6944 33.9461 43.6274 33.987 43.5617C33.9835 43.5378 33.9748 43.5119 33.9592 43.4837C33.948 43.4635 33.933 43.4413 33.9177 43.4185C33.8969 43.3875 33.8756 43.3553 33.8626 43.3251C33.8525 43.3015 33.8544 43.2855 33.8674 43.2855C33.8734 43.2854 33.8818 43.2888 33.8894 43.2918C33.8981 43.2953 33.9058 43.2984 33.908 43.2956C33.9096 43.2936 33.9068 43.2875 33.9034 43.28C33.898 43.2681 33.8911 43.2526 33.8977 43.2446C33.9222 43.2147 33.9558 43.1861 33.9891 43.1585C34.0262 43.1279 34.0628 43.0986 34.086 43.0691C34.1054 43.0446 34.143 43.0245 34.1853 43.0063C34.1995 43.0004 34.2142 42.9948 34.2289 42.9892C34.2689 42.974 34.3089 42.9592 34.3383 42.9418C34.3672 42.9245 34.3845 42.8924 34.4015 42.8613C34.422 42.8238 34.442 42.788 34.4801 42.7826C34.4878 42.7816 34.51 42.7956 34.5378 42.8133C34.5574 42.8258 34.5799 42.8402 34.6019 42.8523C34.6333 42.8266 34.6654 42.8021 34.6982 42.7786C34.6973 42.7751 34.6963 42.7714 34.6952 42.7678C34.6952 42.7677 34.6952 42.7676 34.6951 42.7675C34.6717 42.6847 34.6422 42.5695 34.7335 42.5821C34.7566 42.5854 34.7831 42.6037 34.807 42.6201C34.8304 42.6363 34.8512 42.6509 34.8637 42.648C34.8779 42.6447 34.8806 42.6221 34.8841 42.5973C34.889 42.5625 34.8945 42.5238 34.9323 42.5293C34.9348 42.5296 34.9376 42.5301 34.9405 42.5305C34.9674 42.5343 35.0072 42.5402 35.0626 42.5697C35.1412 42.5335 35.2219 42.5011 35.3042 42.4716C35.4418 42.4225 35.5823 42.3819 35.7332 42.3452C35.8069 42.3274 35.9077 42.3641 36.0075 42.4546C36.1079 42.5449 36.1869 42.6849 36.2319 42.84C36.2776 42.995 36.3156 43.1465 36.3395 43.268C36.3621 43.3899 36.361 43.4739 36.3277 43.5108C36.2735 43.5706 36.2155 43.6366 36.1579 43.7026C36.1559 43.7078 36.1539 43.7128 36.1518 43.7177C36.1357 43.7541 36.1343 43.8088 36.134 43.8631C36.1339 43.8756 36.1338 43.8882 36.1335 43.9005Z" fill="black"/>
<path d="M35.4706 18.675C35.5343 18.2568 35.8251 17.5161 35.9828 17.108C35.9857 17.1004 35.9886 17.0929 35.9915 17.0853C36.029 16.9883 36.0617 16.8956 36.0994 16.7882C36.189 16.5298 36.3144 16.1812 36.5914 15.4706C36.656 15.2594 36.7197 15.0476 36.7814 14.8373C36.8342 14.6576 36.8854 14.4782 36.9346 14.2989C37.6478 11.9208 38.8958 10.0151 40.0761 8.08354C40.0913 8.05668 40.1065 8.02965 40.1223 8.00157C40.254 7.76784 40.3998 7.50996 40.5424 7.26151C40.7329 6.92921 40.9297 6.61519 41.0934 6.38871C41.463 5.87736 41.7446 5.5462 41.98 5.28194C42.6504 4.44342 43.4195 3.69901 44.1616 2.9931C44.8556 2.32813 45.6251 1.74387 46.4473 1.25499C46.9945 0.929162 47.5635 0.645733 48.1459 0.400258C48.4448 0.274168 48.7478 0.158138 49.0509 0.0509697C49.6561 -0.128022 50.0254 0.214755 50.2491 0.412878C50.3371 0.491918 50.414 0.572703 50.4844 0.654392C50.6704 0.871825 50.8065 1.08729 50.9231 1.2946C51.1447 1.69368 51.2876 2.05651 51.3866 2.35732C51.6243 3.08435 51.7488 3.9185 51.8204 4.5322C51.8324 4.63368 51.8427 4.72722 51.8522 4.81508C51.9311 5.29914 51.9973 5.78348 52.0542 6.26779C52.0508 6.30082 52.0472 6.33423 52.0433 6.36792C51.9949 6.78938 52.038 7.29639 52.0804 8.09512C52.0985 8.4431 52.116 8.84678 52.122 9.32166C52.1257 9.62806 52.0939 9.78498 52.0681 9.9144C52.0604 9.95223 52.0533 9.98755 52.0475 10.0231C52.0302 10.1308 52.0467 10.2455 52.0697 10.3731C52.0729 10.3924 52.0761 10.412 52.0793 10.4319C52.113 10.6431 52.1446 10.9089 52.0602 11.2409C51.7707 12.2851 51.6239 12.7112 51.5527 13.0656C51.5283 13.1673 51.5047 13.259 51.4723 13.3492C51.3685 13.6427 51.1377 14.0144 50.9429 14.2737C50.7897 14.4812 50.5578 14.9317 50.3984 15.2752C50.3383 15.4054 50.2399 15.5702 50.1274 15.7634C50.0111 15.9634 49.8795 16.1943 49.763 16.4496C49.7469 16.4851 49.7313 16.5196 49.7162 16.5534L49.6831 16.6094C49.3381 17.1937 49.1336 17.5054 48.9701 17.7599C48.9202 17.8368 48.874 17.9076 48.8273 17.9789C48.6805 18.2035 48.4914 18.4772 48.2972 18.7521C48.065 19.0812 47.825 19.4125 47.6465 19.6684C47.1294 20.2852 46.6024 20.8896 46.0223 21.4799L46.0082 21.4946C46.0055 21.4972 46.0029 21.4997 46.0002 21.5022C45.6904 21.8036 45.3209 22.0265 45.0234 22.1229C44.7204 22.2228 44.4953 22.2033 44.3883 22.0784C44.283 21.9515 44.3042 21.7272 44.4416 21.4481C44.5799 21.1674 44.808 20.8718 45.0684 20.5836C45.0709 20.5809 45.0735 20.5781 45.076 20.5754L45.0642 20.5877C45.5794 19.9924 46.0737 19.347 46.5593 18.7014C47.1523 17.9092 47.7352 17.1047 48.2955 16.2995C48.3934 16.1583 48.4896 16.0176 48.5835 15.8775L48.5448 15.9429C48.8018 15.4529 49.0824 14.9903 49.3578 14.5412C49.3955 14.4797 49.4334 14.4181 49.4709 14.357C49.7386 13.8337 49.9853 13.327 50.1436 12.9765C50.2757 12.6874 50.384 12.4894 50.4721 12.3169C50.5323 12.1985 50.5824 12.0925 50.6174 11.9806C50.6361 11.9207 50.6597 11.8381 50.6845 11.7388C50.7687 11.4107 50.8529 10.9013 50.862 10.3795C50.8649 10.2388 50.8689 10.0917 50.8746 9.9527C50.8878 9.63006 50.9137 9.25476 50.9342 8.8966C50.9639 8.38351 50.9817 7.90456 50.9533 7.66493C50.9041 7.24429 50.8875 6.76025 50.8646 6.33311C50.8433 5.92591 50.8163 5.57014 50.7638 5.37336C50.7009 5.13792 50.687 4.93401 50.6597 4.62907C50.6407 4.41975 50.6151 4.15898 50.5536 3.8151C50.4817 3.41749 50.4359 3.13769 50.3914 2.90002C50.3276 2.56849 50.2715 2.31651 50.0978 1.99234C49.9558 1.73039 49.7964 1.4807 49.6524 1.30586C49.5999 1.24146 49.5489 1.18519 49.5045 1.13963C49.4332 1.05805 49.3204 1.01797 49.3543 1.03112C49.3624 1.03199 49.3787 1.03046 49.3908 1.02629C49.1971 1.09498 49.0008 1.16678 48.8159 1.22679C48.6272 1.28808 48.4645 1.32244 48.3199 1.35527C48.2752 1.36536 48.2313 1.37577 48.1902 1.38632C48.0458 1.45232 47.9039 1.52073 47.7627 1.59271C47.7422 1.60876 47.7208 1.62598 47.6984 1.64403C47.5867 1.73431 47.4509 1.84682 47.2753 1.96762C46.9984 2.15872 46.7404 2.30064 46.4735 2.46115C46.2658 2.58643 46.0526 2.72363 45.8298 2.9089C45.6781 3.03504 45.5147 3.19016 45.3581 3.34888C45.2124 3.49643 45.0731 3.64649 44.9486 3.7775C44.871 3.85901 44.7987 3.93131 44.7338 3.99034C44.6683 4.05001 44.6012 4.08924 44.5342 4.12879C44.5339 4.12894 44.5335 4.12908 44.5332 4.12923C44.5287 4.1319 44.5242 4.13461 44.5197 4.13728C44.1293 4.55507 43.7544 4.97502 43.4095 5.41282C43.3823 5.45315 43.3552 5.49357 43.3282 5.53418C43.1967 5.73167 43.0751 5.92685 43.0128 6.06544C42.9444 6.21556 42.7216 6.55337 42.5052 6.92244C42.3626 7.16403 42.221 7.41894 42.1157 7.63272C42.0541 7.7575 41.969 7.86081 41.882 7.96795C41.8696 7.98323 41.8572 7.99867 41.8447 8.01434C41.7748 8.10225 41.7035 8.1972 41.6449 8.30673C41.6095 8.37266 41.5776 8.44457 41.5427 8.52298C41.5115 8.59265 41.4801 8.66365 41.4428 8.73824C41.4082 8.80758 41.3127 8.94941 41.1911 9.13091C41.1158 9.2435 41.0304 9.37152 40.9436 9.50629C40.7432 9.8814 40.5459 10.2555 40.3526 10.6307C40.326 10.7167 40.3101 10.7947 40.3078 10.8621C40.3062 10.9105 40.3114 10.9552 40.3168 11.001C40.324 11.0633 40.3316 11.1277 40.3233 11.206C40.3168 11.2672 40.2934 11.3308 40.2638 11.3661C40.25 11.3825 40.2349 11.3928 40.2213 11.4021C40.2057 11.4128 40.1918 11.4224 40.1835 11.4387C40.1775 11.4504 40.1766 11.4654 40.1754 11.4838C40.1735 11.5132 40.171 11.5514 40.1468 11.5987C40.0571 11.7747 39.9502 11.9723 39.8485 12.1656C39.7349 12.3811 39.6278 12.5918 39.5527 12.764C39.4683 12.9569 39.3245 13.2187 39.1898 13.4829C39.0959 13.6665 39.0059 13.8529 38.94 14.0135C38.8748 14.1727 38.8302 14.3424 38.7923 14.5066C38.7704 14.602 38.7501 14.6976 38.73 14.7839C38.7044 14.8908 38.675 14.9916 38.6391 15.0809C38.6248 15.1162 38.5876 15.1554 38.5413 15.2031C38.5085 15.237 38.4706 15.2766 38.4328 15.3221C38.3659 15.55 38.2955 15.7767 38.2229 16.0007C38.2237 16.0096 38.2244 16.0188 38.2252 16.028C38.2252 16.0282 38.2252 16.0283 38.2253 16.0285C38.243 16.2368 38.2652 16.5242 38.0869 16.855C38.0414 16.9397 37.9941 16.985 37.9509 17.0275C37.9088 17.0684 37.8712 17.1044 37.8444 17.1682C37.8145 17.239 37.8003 17.3326 37.7856 17.4317C37.7641 17.5735 37.7409 17.7289 37.6649 17.8693C37.6597 17.8789 37.654 17.8893 37.6484 17.8997C37.5941 18.0001 37.5129 18.1507 37.4059 18.2898C37.2298 18.7534 37.0513 19.2125 36.8706 19.6734C36.8151 19.8151 36.7594 19.9565 36.7029 20.1C36.4665 20.6976 36.2627 21.3116 36.1006 21.9343C36.0036 22.3057 35.871 22.6524 35.723 22.9034C35.5734 23.154 35.426 23.2904 35.2662 23.3089C35.1038 23.3276 34.9364 23.1265 34.8492 22.8119C34.76 22.4951 34.7505 22.0788 34.8204 21.6637C34.9347 20.9869 35.0911 20.3229 35.289 19.6661C35.2934 19.6482 35.2978 19.6303 35.3023 19.6124C35.3064 19.5957 35.3106 19.5791 35.3147 19.5626C35.3766 19.316 35.4122 19.0759 35.4465 18.8388C35.4546 18.7838 35.4625 18.7292 35.4706 18.675Z" fill="black"/>
<path d="M18.8002 25.6189C18.562 25.5561 18.2033 25.3536 17.9261 25.1946C17.8554 25.1538 17.792 25.1169 17.7359 25.0848C17.731 25.082 17.726 25.0792 17.7211 25.0764C17.6579 25.0402 17.595 25.008 17.5226 24.9717C17.3476 24.885 17.1164 24.7673 16.6233 24.5062C16.4732 24.4454 16.322 24.385 16.1693 24.3243C15.5726 24.0853 14.9399 23.8517 14.2923 23.5307C13.2809 23.0243 12.2365 22.541 11.1869 22.0463C11.1657 22.0378 11.1442 22.0292 11.1222 22.0205C11.0073 21.9746 10.8869 21.9266 10.763 21.8764C10.4436 21.7468 10.114 21.6221 9.88907 21.5227C9.49711 21.3492 9.22852 21.2399 9.00564 21.152C7.70612 20.7438 6.31764 20.6368 4.9044 20.7136C4.53884 20.7326 4.17238 20.7625 3.80559 20.8008C3.72729 20.809 3.64957 20.8173 3.57267 20.8259C3.37003 20.8489 3.17005 20.8738 2.99174 20.9085C2.81975 20.9371 2.63995 21.0111 2.65413 21.0154C2.65477 21.0153 2.65555 21.0152 2.65645 21.0149C2.57961 21.1112 2.579 21.1736 2.58527 21.2676C2.5967 21.4023 2.67015 21.5887 2.74177 21.7449C2.91199 22.1274 3.21454 22.6149 3.45623 22.9683C3.49589 23.0265 3.53376 23.0811 3.56966 23.1318C3.78954 23.3973 4.02232 23.6583 4.26175 23.9347C4.27199 23.9576 4.28193 23.9806 4.29291 24.0052C4.30634 24.0356 4.32052 24.0658 4.33539 24.0957C4.44677 24.3354 4.66836 24.5857 5.03847 24.9295C5.21805 25.0961 5.43339 25.2848 5.69255 25.5065C5.85935 25.6489 5.92729 25.7458 5.98311 25.8256C5.99971 25.8491 6.01482 25.8708 6.03145 25.8917C6.08837 25.9633 6.17696 26.0034 6.28143 26.0498C6.41743 26.1103 6.57992 26.1811 6.7413 26.3491C7.25697 26.8834 7.57249 27.0068 7.80746 27.1013C7.87666 27.129 7.9394 27.1542 7.99914 27.1862C8.19281 27.29 8.42752 27.4968 8.59381 27.6689C8.72564 27.8051 9.04578 28.0023 9.29801 28.1437C9.35752 28.1769 9.42566 28.2243 9.50114 28.2805C9.54319 28.3117 9.58736 28.3449 9.63534 28.3801C9.76658 28.4763 9.922 28.5833 10.101 28.6748C10.5542 28.9035 10.8063 28.9904 11.0074 29.0628C11.0651 29.083 11.1186 29.1009 11.1728 29.1182C11.3433 29.1727 11.5551 29.2378 11.7728 29.2921C12.0333 29.3578 12.3026 29.4074 12.5107 29.4293C12.656 29.4645 12.803 29.4961 12.9516 29.5244L12.8281 29.5163C13.1037 29.5282 13.4544 29.4833 13.9111 29.5191C14.0272 29.5295 14.138 29.5478 14.2339 29.5669C14.5676 29.6379 14.7937 29.7542 14.9887 29.9018C15.1765 30.0496 15.2788 30.2193 15.2617 30.3833C15.2434 30.5467 15.1065 30.6931 14.8705 30.7848C14.6397 30.8787 14.2994 30.8929 14.0276 30.859C13.9537 30.8508 13.8914 30.8468 13.8327 30.847C13.5841 30.8459 13.2504 30.9089 12.8496 30.9307L12.7448 30.9238C12.5493 30.9021 12.3535 30.8744 12.1579 30.8398C11.3668 30.7014 10.5781 30.443 9.85822 30.0536C9.45448 29.836 9.07179 29.5824 8.71441 29.301C8.63531 29.2385 8.55463 29.1754 8.47468 29.1131C8.43311 29.0807 8.39107 29.048 8.34938 29.0158C7.98003 28.7892 7.60691 28.5636 7.35043 28.3935C7.13862 28.2532 7.00062 28.1266 6.88247 28.0179C6.80098 27.943 6.72914 27.8768 6.64825 27.8201C6.60481 27.7897 6.54511 27.7492 6.47261 27.6998C6.17756 27.499 5.67368 27.1537 5.2552 26.772C5.06949 26.6029 4.86423 26.3914 4.67257 26.1833C4.39778 25.8865 4.15379 25.5935 4.00848 25.4659C3.80403 25.2882 3.60166 25.0558 3.42835 24.8153C3.39197 24.764 3.35248 24.7091 3.31549 24.6579C3.13691 24.412 2.97367 24.1905 2.85464 24.0855C2.7119 23.9597 2.62166 23.8247 2.49189 23.6192C2.4022 23.476 2.29253 23.2999 2.14071 23.0556C1.96556 22.772 1.86953 22.5464 1.79777 22.3473C1.70167 22.0634 1.63101 21.851 1.55041 21.4697C1.44849 21.072 1.63847 20.4842 1.95437 20.2438C1.98034 20.2208 2.0067 20.2003 2.03207 20.1823C2.23048 20.0455 2.41571 19.989 2.58803 19.9416C2.81571 19.8823 3.03079 19.8513 3.2246 19.8415C3.38424 19.8341 3.5148 19.8522 3.63005 19.8681C3.65631 19.8717 3.68151 19.8753 3.70648 19.8784C3.71573 19.8795 3.72488 19.8806 3.73394 19.8817C3.85812 19.868 3.97773 19.8553 4.1023 19.8424C4.12175 19.8354 4.14214 19.8277 4.16338 19.8199C4.26869 19.7804 4.40303 19.732 4.56844 19.7009C4.83218 19.6516 5.06909 19.6545 5.31688 19.6619C5.51196 19.6678 5.71194 19.6763 5.94373 19.6678C6.10056 19.662 6.28067 19.649 6.46068 19.6397C6.72719 19.6255 6.99151 19.6203 7.17495 19.6458C7.24307 19.6552 7.30084 19.6799 7.35741 19.7048C7.35765 19.705 7.3579 19.7051 7.35815 19.7053C7.36199 19.707 7.36585 19.7086 7.36968 19.7103C7.81549 19.7338 8.26395 19.7805 8.70848 19.8531C8.74773 19.8558 8.7874 19.8589 8.82672 19.8622C9.0186 19.8782 9.20509 19.8994 9.33128 19.8973C9.46818 19.8945 9.79492 19.9611 10.1338 20.0491C10.3555 20.106 10.5834 20.1714 10.7698 20.2202C10.8797 20.2489 10.9708 20.3066 11.0645 20.367C11.1487 20.4212 11.2317 20.4762 11.3335 20.5159C11.3379 20.5176 11.3423 20.5192 11.3468 20.5209C11.399 20.54 11.4558 20.5546 11.5182 20.5708C11.573 20.585 11.6297 20.5995 11.6891 20.6188C11.7438 20.6365 11.8565 20.6959 12.0023 20.7727C12.0922 20.8201 12.1944 20.874 12.3022 20.9283C12.6009 21.0402 12.9007 21.1537 13.1997 21.2695C13.268 21.279 13.3312 21.2806 13.3851 21.2709C13.4242 21.2642 13.4603 21.2515 13.4973 21.2386C13.5475 21.2211 13.6002 21.2033 13.6633 21.1983C13.7132 21.1947 13.7643 21.2069 13.7924 21.2297C13.8055 21.2403 13.8136 21.2531 13.8209 21.2646C13.8293 21.2779 13.8368 21.2897 13.8498 21.2951C13.8592 21.2991 13.8712 21.2976 13.8863 21.296C13.9103 21.2934 13.9415 21.2901 13.9794 21.3062C14.1209 21.3663 14.2789 21.442 14.4336 21.5173C14.6057 21.601 14.7735 21.6841 14.9109 21.7431C14.9662 21.7668 15.0282 21.7979 15.0944 21.8337C15.1978 21.8908 15.3161 21.9602 15.4386 22.0286C15.5718 22.1031 15.7097 22.1765 15.8329 22.2328C15.9537 22.2879 16.0887 22.327 16.221 22.3651C16.3798 22.4109 16.535 22.4556 16.6558 22.5247C16.6804 22.5388 16.7033 22.5747 16.7323 22.6198C16.7529 22.6517 16.7767 22.6885 16.8055 22.7251C16.9692 22.7902 17.1333 22.8579 17.2971 22.9287C17.3042 22.928 17.3115 22.9273 17.3189 22.9266C17.319 22.9265 17.3191 22.9265 17.3192 22.9265C17.4848 22.9099 17.7153 22.8893 17.9496 23.0673C18.0082 23.1122 18.0374 23.1594 18.0631 23.2016C18.088 23.2429 18.1102 23.28 18.156 23.3072C18.2073 23.3379 18.2785 23.3536 18.3555 23.3711C18.4637 23.3957 18.5855 23.4248 18.6816 23.5034C18.6882 23.5087 18.6952 23.5146 18.7026 23.5206C18.7214 23.5359 18.7428 23.5532 18.7657 23.5727C18.8263 23.6245 18.8963 23.6901 18.9597 23.7695C19.2853 23.9582 19.6065 24.1546 19.9227 24.3569C20.4505 24.6951 20.9666 25.0488 21.4733 25.426C21.7201 25.6103 21.9221 25.8434 22.0275 26.0776C22.1326 26.3087 22.1317 26.536 21.9986 26.633C21.8744 26.7355 21.7202 26.7954 21.4922 26.7743C21.2668 26.754 21.002 26.6615 20.7521 26.5178C20.344 26.2829 19.9252 26.0594 19.5022 25.842C19.479 25.8323 19.4555 25.8223 19.4328 25.8126C19.2611 25.7388 19.0906 25.6937 18.9185 25.6493C18.8793 25.6393 18.8398 25.6292 18.8002 25.6189Z" fill="black"/>
<path d="M22.6 25.0629C22.6472 24.9377 22.8405 24.8485 22.947 24.8009C22.949 24.8 22.9509 24.7991 22.9528 24.7982C22.9782 24.7868 23.001 24.7734 23.0269 24.7583C23.0893 24.722 23.1747 24.6717 23.3745 24.6068C23.4239 24.5744 23.4748 24.5424 23.5256 24.5118C23.99 24.2327 24.4911 24.0087 25.0153 23.8271C25.1168 23.7916 25.2189 23.7586 25.3209 23.7279C25.3285 23.7242 25.3363 23.7204 25.3441 23.7166C25.495 23.6429 25.6845 23.5581 25.815 23.5401C25.9809 23.5169 26.0959 23.5128 26.1898 23.5114C26.6968 23.406 27.1925 23.3274 27.6767 23.2255C27.8281 23.1937 27.9785 23.1597 28.128 23.1222C28.2656 23.0878 28.4017 23.0516 28.5381 23.0131C28.6131 22.9773 28.6853 22.9389 28.7504 22.9038C28.8434 22.854 28.9247 22.8102 28.9959 22.7849C29.0929 22.7502 29.2013 22.7286 29.3056 22.7132L29.276 22.7213C29.3549 22.7055 29.4276 22.6948 29.4941 22.6846C29.5192 22.6808 29.5427 22.6772 29.5644 22.6738C29.6776 22.6293 29.792 22.5841 29.9047 22.5394C29.9142 22.5434 29.9242 22.5475 29.9341 22.5518C30.0582 22.6053 30.1795 22.5692 30.3725 22.5134C30.4574 22.4888 30.5544 22.4611 30.6712 22.4355C30.7468 22.4189 30.7932 22.4416 30.8321 22.4599C30.8434 22.4653 30.854 22.4703 30.8643 22.4739C30.8995 22.4863 30.9246 22.4559 30.9552 22.4198C30.9943 22.3731 31.042 22.3169 31.1279 22.3336C31.403 22.3866 31.4891 22.2806 31.5566 22.1996C31.5759 22.1759 31.5937 22.1545 31.614 22.14C31.679 22.0933 31.7894 22.0965 31.877 22.1168C31.9464 22.1329 32.0623 22.0727 32.1476 22.0115C32.1793 21.9885 32.2281 21.9768 32.2844 21.9636C32.3433 21.9497 32.4109 21.9341 32.48 21.9012C32.6545 21.8181 32.7478 21.7768 32.8229 21.7435C32.8441 21.7341 32.8641 21.7254 32.8841 21.7165C32.898 21.7103 32.9128 21.704 32.9281 21.6977C32.9861 21.6752 33.0479 21.6532 33.1103 21.6311C33.2063 21.597 33.3036 21.5627 33.376 21.5286C33.5775 21.5093 33.7793 21.4954 33.9808 21.4818C34.0843 21.4749 34.1952 21.5285 34.2898 21.6342C34.3843 21.7399 34.4547 21.8881 34.4862 22.0497C34.5177 22.2113 34.5081 22.3751 34.4602 22.5086C34.4123 22.642 34.3299 22.7334 34.2318 22.766C34.0343 22.8312 33.8372 22.8966 33.6398 22.9572C33.4988 23.0006 33.3577 23.0415 33.2163 23.0782C33.1206 23.1039 33.021 23.1284 32.921 23.1502C32.7519 23.1871 32.5825 23.2213 32.4128 23.2537C32.3953 23.257 32.3775 23.2604 32.3603 23.2636C32.2284 23.3363 32.0968 23.4062 32.0008 23.4435C31.922 23.4741 31.8575 23.468 31.8014 23.4631C31.7635 23.4595 31.7298 23.4565 31.6985 23.4663C31.6814 23.4717 31.6597 23.4798 31.6326 23.4899C31.522 23.531 31.335 23.6015 31.149 23.6109C31.0659 23.6152 30.9663 23.6066 30.8713 23.5985C30.7346 23.5873 30.6075 23.5774 30.5524 23.607C30.4566 23.6588 30.334 23.673 30.2246 23.6862C30.1215 23.6983 30.0302 23.7096 29.9888 23.7504C29.9382 23.7994 29.886 23.8009 29.805 23.8043C29.7519 23.8065 29.6897 23.8087 29.6074 23.8257L29.583 23.8324C29.578 23.8332 29.573 23.834 29.5679 23.8349C29.4634 23.8527 29.3866 23.848 29.3203 23.8443C29.2282 23.8386 29.1574 23.8348 29.0706 23.8953C28.973 23.9628 28.8676 24.0165 28.7767 24.0251C28.7348 24.0292 28.6894 24.042 28.6425 24.0552C28.5791 24.073 28.5147 24.0912 28.4497 24.0917C28.3966 24.0921 28.3486 24.0712 28.3048 24.053C28.2912 24.0473 28.2782 24.0419 28.2659 24.0374C28.2262 24.0478 28.1873 24.0582 28.1476 24.0693C28.1424 24.0759 28.137 24.0831 28.1315 24.0906C28.1034 24.1282 28.0695 24.1741 28.0202 24.2054C27.943 24.2547 27.8642 24.2568 27.7816 24.2589C27.7169 24.2606 27.6501 24.2625 27.5794 24.2873C27.5318 24.304 27.4784 24.3322 27.4273 24.3598C27.35 24.4011 27.2752 24.442 27.2162 24.4466C27.1942 24.4482 27.1706 24.4341 27.1472 24.4202C27.1471 24.4201 27.147 24.42 27.1468 24.4199C27.1453 24.4189 27.1437 24.418 27.1421 24.4171C27.0108 24.4713 26.8811 24.5284 26.7536 24.588C26.7437 24.5966 26.7338 24.6052 26.7238 24.6137C26.6748 24.6553 26.6286 24.6958 26.6042 24.7397C26.5779 24.7872 26.4899 24.8396 26.3992 24.8965C26.34 24.9336 26.2793 24.9726 26.2333 25.0121C26.2064 25.0352 26.1698 25.0274 26.1315 25.0197C26.0958 25.0124 26.0592 25.0052 26.0295 25.0229C26.0146 25.0317 26.0009 25.0467 25.9863 25.0628C25.9735 25.0769 25.9601 25.0918 25.9446 25.1041C25.9302 25.1156 25.8897 25.1207 25.8377 25.128C25.8055 25.1326 25.7691 25.138 25.7318 25.1461C25.7081 25.161 25.6844 25.176 25.6609 25.1911C25.5991 25.2303 25.5373 25.2699 25.4757 25.3097C25.4648 25.3354 25.4588 25.3646 25.4594 25.3981C25.4598 25.4222 25.4636 25.4493 25.4674 25.477C25.4726 25.5148 25.4781 25.5538 25.476 25.5882C25.4744 25.615 25.4643 25.6305 25.4503 25.6269C25.4438 25.6252 25.4365 25.6194 25.4299 25.6142C25.4223 25.6082 25.4156 25.6029 25.4118 25.6051C25.409 25.6067 25.4089 25.6137 25.4088 25.6223C25.4085 25.6359 25.4082 25.6535 25.3971 25.6599C25.3558 25.6836 25.3057 25.7043 25.2564 25.7249C25.2017 25.7479 25.1482 25.7708 25.1099 25.797C25.0671 25.8263 24.9911 25.8419 24.9152 25.8583C24.8619 25.8698 24.809 25.8816 24.7668 25.8983C24.7254 25.9147 24.6926 25.9485 24.6605 25.9817C24.6219 26.0216 24.586 26.0597 24.5379 26.0648C24.5282 26.0658 24.506 26.0499 24.4781 26.0301C24.4584 26.0161 24.4357 26.0001 24.4127 25.9867C24.365 26.0153 24.3165 26.0437 24.2681 26.0711C24.2682 26.075 24.2682 26.0791 24.2683 26.0831C24.2683 26.0832 24.2684 26.0833 24.2684 26.0834C24.2705 26.1755 24.2756 26.3003 24.1666 26.292C24.1389 26.2899 24.1111 26.2714 24.0855 26.2551C24.0605 26.239 24.0381 26.2246 24.0215 26.2291C24.0027 26.2343 23.993 26.26 23.9827 26.2879C23.9681 26.3273 23.9515 26.3715 23.9059 26.3696C23.9028 26.3695 23.8995 26.3693 23.896 26.3692C23.8633 26.3681 23.8136 26.3674 23.7497 26.3426C23.641 26.396 23.5319 26.4477 23.4219 26.4994C23.2379 26.586 23.053 26.6713 22.8697 26.7593C22.7806 26.8018 22.661 26.7959 22.5333 26.7399C22.4046 26.6846 22.2786 26.5844 22.1807 26.4559C22.0819 26.3281 22.0192 26.1793 22.0062 26.037C21.9921 25.8959 22.0284 25.7748 22.1026 25.6992C22.2246 25.5756 22.3461 25.455 22.4719 25.3365C22.4775 25.3285 22.4831 25.3208 22.4886 25.3133C22.53 25.2575 22.5557 25.1851 22.5817 25.1127C22.5877 25.096 22.594 25.0791 22.6 25.0629Z" fill="black"/>
<path d="M14.0056 38.4247C13.5441 39.3312 12.2051 40.1845 11.5624 40.5638C11.5504 40.5711 11.5382 40.5785 11.5262 40.5859C11.371 40.6801 11.2275 40.7699 11.0675 40.8733C10.8891 40.9896 10.6739 41.1285 10.4601 41.2977C10.3587 41.3976 10.2482 41.4213 10.2644 41.9197C10.2982 42.184 10.3951 42.4956 10.5252 42.807C10.9178 43.7346 11.5484 44.6661 12.2186 45.5475C14.0005 47.796 16.4848 49.6835 18.94 51.4654C18.9842 51.4954 19.0289 51.5256 19.0738 51.5559C19.945 52.1456 21.0506 52.8524 21.728 53.3199C21.8549 53.4075 21.9728 53.4894 22.0803 53.565C22.6588 53.9671 23.1963 54.187 23.6369 54.3689C24.8746 54.8154 26.2102 55.1259 27.5457 55.4269C29.3837 55.8386 31.3837 55.7618 33.3668 55.7567C33.4747 55.7555 33.5808 55.7543 33.6907 55.753C34.6156 55.7419 35.5357 55.6661 36.4416 55.5114C37.3702 55.3527 38.2827 55.1118 39.1533 54.7745C39.5798 54.5964 39.9753 54.4002 40.334 54.1968C40.4016 54.1587 40.4677 54.1213 40.5323 54.0844C41.1354 53.7406 41.6637 53.4233 42.0992 53.165C43.1548 52.5436 44.3233 51.8194 45.1336 51.2108C45.2652 51.113 45.3882 51.0189 45.5035 50.928C46.1195 50.4131 46.6712 49.8497 47.2507 49.2402C47.2948 49.2047 47.3403 49.1685 47.3862 49.1325C47.4732 49.0641 47.5624 48.9917 47.656 48.9151C48.1438 48.5197 48.6881 47.9548 49.3899 47.0582C49.7489 46.5982 50.148 46.0489 50.5946 45.3828C50.8816 44.9533 51.05 44.7438 51.1881 44.5737C51.2288 44.5233 51.2669 44.4758 51.3038 44.4271C51.4304 44.2601 51.5247 44.0586 51.6329 43.8211C51.7736 43.5124 51.9395 43.1399 52.2331 42.69C52.5022 42.2773 52.7152 41.922 52.8895 41.6147C53.2929 40.8922 53.3535 40.4125 53.3974 40.0389C53.4135 39.8836 53.4227 39.7426 53.4356 39.5987C53.4777 39.1727 53.5296 38.5675 53.5723 38.0446C53.5763 38.006 53.5794 37.9663 53.5819 37.9273C53.6159 37.5565 53.4389 36.7254 53.2719 36.0902C53.247 35.9932 53.2215 35.8814 53.1953 35.7564C53.1697 35.6394 53.1212 35.5019 53.031 35.3455C52.8772 35.0742 52.5925 34.7585 52.2274 34.4459C51.2841 33.664 50.6893 33.1999 50.2842 32.7282C50.2574 32.6977 50.2314 32.6674 50.2059 32.6371L50.1164 32.4897C50.0527 32.355 50.0046 32.2298 49.9618 32.1135C49.7876 31.6333 49.6402 31.0774 49.4967 30.5046C49.3272 29.8238 49.1727 29.1359 49.0489 28.6144C48.7979 27.2486 48.5727 25.8859 48.3411 24.5272C48.2321 23.8864 48.1754 23.2558 48.184 22.7634L48.216 22.8668C48.2097 22.8293 48.2034 22.792 48.1972 22.755C48.1065 22.2754 48.1157 21.9257 48.2706 21.8637C48.4217 21.8026 48.6772 21.9683 49.0095 22.389C49.0353 22.423 49.0612 22.4588 49.087 22.4966L49.112 22.5775C49.3108 23.0337 49.4936 23.6454 49.6267 24.2837C49.9185 25.6838 50.2023 27.0825 50.5016 28.4711C50.7654 29.6494 51.0219 30.9657 51.3899 31.9211L51.2975 31.7689C51.5599 32.0945 51.9035 32.4097 52.2687 32.73C52.9975 33.4328 54.0682 34.0061 54.4574 35.5153C54.4879 35.6797 54.5191 35.8452 54.5501 36.0121C54.5731 36.1361 54.596 36.2611 54.6184 36.3872C54.7346 36.9224 54.8567 37.461 54.867 38.0705C54.8738 38.5238 54.8684 38.9643 54.8367 39.3376C54.7834 39.983 54.6491 40.4607 54.5107 40.8507C54.4142 41.1208 54.3149 41.3518 54.2154 41.5862C54.1621 41.7114 54.0866 41.8822 53.9855 42.0815C53.9692 42.1138 53.952 42.1471 53.934 42.1813C53.5472 42.9208 52.9149 44.1218 52.2243 45.1678C51.9068 45.6509 51.512 46.198 51.1154 46.7066C50.5505 47.4355 49.9756 48.0784 49.7023 48.4176C49.3445 48.8663 48.9036 49.3322 48.4502 49.7474C48.3115 49.8742 48.1746 50.005 48.0404 50.1346C47.5309 50.6334 47.0475 51.0801 46.7913 51.3422C46.4813 51.6619 46.1866 51.8924 45.7304 52.2177C45.4142 52.4416 45.0239 52.7064 44.4887 53.054C43.867 53.4559 43.4092 53.7026 43.0219 53.9085C42.4729 54.1982 42.0595 54.4058 41.4669 54.7664C41.2498 54.8976 41.0446 55.0188 40.823 55.144C40.3519 55.4105 39.8703 55.6261 39.4522 55.7731C39.1719 55.8719 38.8523 55.9826 38.5151 56.0849C38.0688 56.2207 37.5936 56.3401 37.1534 56.4142C36.7906 56.4754 36.4865 56.4934 36.2185 56.5047C36.1342 56.5083 36.0546 56.511 35.977 56.5139C35.6895 56.5531 35.4005 56.5855 35.112 56.6117C35.0653 56.6209 35.0174 56.6307 34.9664 56.6406C34.7109 56.6906 34.3945 56.7474 34.0007 56.7781C33.9026 56.7858 33.8058 56.7915 33.7097 56.7957C33.212 56.8173 32.7593 56.8099 32.2813 56.7997C31.8396 56.7901 31.3808 56.7788 30.8511 56.7803C30.4907 56.7813 30.0783 56.7869 29.6651 56.7809C29.0533 56.7738 28.4383 56.7316 28.0163 56.6547C27.8582 56.6265 27.7252 56.5836 27.595 56.5394C27.5944 56.5391 27.5939 56.5389 27.5933 56.5387C27.5844 56.5357 27.5756 56.5327 27.5667 56.5297C27.4866 56.5159 27.4068 56.5015 27.3269 56.4862C26.4156 56.312 25.504 56.1308 24.5903 55.9058C24.5028 55.8879 24.4163 55.8697 24.3286 55.8506C23.9044 55.7593 23.4903 55.6542 23.2132 55.594C22.9151 55.5263 22.1756 55.3054 21.4132 54.8696C21.3698 54.8445 21.3267 54.819 21.2842 54.7929C20.8981 54.5594 20.4848 54.312 20.1476 54.1149C19.9319 53.989 19.7415 53.8399 19.5496 53.688C19.3684 53.5448 19.1851 53.3987 18.9679 53.2594C18.8618 53.1913 18.7365 53.1173 18.6113 53.0436C18.5003 52.9782 18.3766 52.9045 18.2567 52.8287C18.1435 52.7571 17.9029 52.5785 17.5948 52.345C17.4066 52.2023 17.1911 52.0375 16.9652 51.865C16.3481 51.4372 15.7394 50.9989 15.1389 50.5429C15.004 50.4602 14.8823 50.3937 14.7789 50.3498C14.7047 50.3183 14.6368 50.297 14.5672 50.2749C14.4725 50.2449 14.3742 50.2132 14.2528 50.1521C14.1578 50.1043 14.0578 50.0336 14.0006 49.9734C13.974 49.9454 13.9568 49.92 13.9413 49.8969C13.9234 49.8705 13.9075 49.847 13.8818 49.8257C13.8633 49.8104 13.8402 49.799 13.8118 49.7849C13.7665 49.7623 13.7079 49.733 13.6334 49.67C13.3555 49.4351 13.0498 49.1589 12.7533 48.8779C12.425 48.5673 12.1091 48.2505 11.8581 47.9981C11.5759 47.7154 11.2005 47.277 10.8532 46.8034C10.8225 46.7617 10.7922 46.7199 10.7624 46.6783C10.5632 46.3992 10.3714 46.1185 10.204 45.872C10.0161 45.5954 9.81045 45.3118 9.61872 45.0268C9.38866 44.6854 9.17833 44.339 9.04183 44.0162C9.01438 43.9512 8.99824 43.8606 8.98064 43.7469C8.96855 43.6672 8.95436 43.5726 8.93646 43.4689C8.76474 43.0526 8.61561 42.6062 8.5576 42.0929C8.55216 42.0749 8.54674 42.0562 8.54139 42.0374C8.54128 42.0372 8.54117 42.0369 8.54106 42.0366C8.43645 41.668 8.25101 40.7776 9.08154 39.9923C9.14092 39.9395 9.19756 39.8968 9.25088 39.8611C9.3471 39.8017 9.42497 39.7676 9.49569 39.7379C9.59486 39.6966 9.68141 39.6635 9.78967 39.5942C9.91169 39.5162 10.0418 39.4097 10.1811 39.2981C10.3761 39.1416 10.5891 38.9743 10.8238 38.8536C10.8399 38.8453 10.8569 38.8366 10.8748 38.8274C11.0442 38.7394 11.289 38.6106 11.5369 38.4984C12.1295 38.0853 12.639 37.6141 12.8237 37.1151C12.8447 37.0589 12.8645 37.0017 12.8831 36.9437C13.0229 36.5112 13.0971 36.0289 13.1571 35.5147C13.255 34.6789 13.2533 33.7589 13.4135 32.8019C13.5261 32.1244 13.8254 31.3476 14.4245 31.004C14.4585 30.9862 14.4919 30.9696 14.5248 30.9541C15.0058 30.7236 15.391 30.7286 15.4146 30.8999C15.4907 31.039 15.3451 31.2683 15.07 31.643C15.0514 31.6682 15.0323 31.694 15.0124 31.7204C14.8796 31.9525 14.7732 32.4093 14.7079 32.9936C14.612 33.8019 14.6555 34.6863 14.5935 35.6481C14.5768 35.8886 14.5566 36.136 14.5253 36.3899C14.5193 36.4543 14.5125 36.5195 14.5046 36.5848C14.4625 36.9356 14.4103 37.2828 14.3247 37.63C14.2841 37.7856 14.2326 37.9358 14.1723 38.0797C14.1223 38.1991 14.0664 38.314 14.0056 38.4247Z" fill="black"/>
</svg>
