<svg width="68" height="109" viewBox="0 0 68 109" fill="none" xmlns="http://www.w3.org/2000/svg">
<path d="M10.4273 52.262C10.0698 52.262 9.14235 52.3612 7.74798 52.851C4.34038 54.0478 3.20406 58.7002 1.99148 62.4326C0.772961 66.1833 0.888421 68.9826 1.23333 70.3487C2.151 73.9834 6.95948 74.9102 12.7325 77.0351C19.1166 79.3849 24.8652 80.1459 27.5794 80.0125C30.8236 79.8531 33.0488 76.9589 35.2292 75.0187C37.2787 73.1949 40.2425 71.8623 42.9607 70.2744C46.1238 68.4267 52.7487 66.31 57.255 64.7826C61.1915 63.4483 63.8183 60.1914 65.9024 58.0388C67.6812 56.2014 65.9035 53.2771 64.7688 51.6435C61.2703 46.607 57.7334 45.2324 51.8479 42.8536C44.9813 40.0783 40.7151 40.7372 36.2226 39.8413C29.6571 38.5322 18.7597 40.1364 14.422 42.1894C11.5285 43.5588 9.49761 46.5382 6.79452 49.3201C6.25995 50.023 5.96468 50.6619 5.75472 51.3225C5.54477 51.9832 5.42908 52.6462 5.30988 53.9599" stroke="black" stroke-width="2" stroke-linecap="round"/>
<path d="M2.68311 63.7891C8.27934 63.7891 21.776 63.9738 25.956 65.2485C28.926 67.1346 31.0677 69.2501 32.959 71.7256C33.3924 72.3789 33.7585 72.9971 34.9885 75.052" stroke="black" stroke-width="2" stroke-linecap="round"/>
<path d="M6.77502 51.2734C11.8563 51.2734 26.497 52.5581 31.9402 53.6835C38.0606 55.9715 44.0894 59.6553 48.1034 63.2763C48.968 63.9521 49.5862 64.2612 51.1231 64.7524" stroke="black" stroke-width="2" stroke-linecap="round"/>
<path d="M29.5232 37.9805C32.6967 37.9805 40.1406 38.167 47.1407 41.1539C55.0016 44.5081 57.3911 48.4066 59.9649 50.6592C61.2666 51.7984 62.4648 52.8616 63.183 54.0485C63.4272 54.7045 63.4272 55.4695 63.4617 56.6008C63.4962 57.7322 63.5653 59.2068 63.7934 60.7261" stroke="black" stroke-width="2" stroke-linecap="round"/>
<path d="M51.1204 41.4492C50.5343 42.2692 47.3493 49.0426 43.5496 56.7369C42.3121 59.5012 40.9793 62.2684 39.5835 64.8501C39.0017 65.9624 38.6771 66.6729 37.9921 68.5928" stroke="black" stroke-width="2" stroke-linecap="round"/>
<path d="M34.8002 38.6006C33.5678 38.9951 30.2744 41.1983 24.0385 48.2158C18.4682 54.4843 17.5877 58.6292 15.9679 62.4048C14.6338 66.783 13.2059 71.42 12.2433 74.331C11.7357 75.7233 11.1892 76.9432 10.2572 79.2571" stroke="black" stroke-width="2" stroke-linecap="round"/>
<path d="M11.3247 76.5284C11.3247 81.7541 11.6131 93.482 13.4839 96.7952C15.4583 100.292 19.6197 101.583 24.0444 103.352C27.3907 104.689 31.7156 104.423 36.0963 104.812C39.2801 105.094 41.9182 106.174 43.8596 107.613C45.8439 109.083 47.4035 103.527 49.677 101.7C52.1993 99.6729 55.7596 98.9213 58.4373 97.1602C61.0812 95.4214 63.1366 92.6309 64.9125 90.1677C66.8342 87.5022 66.6255 82.3992 66.805 67.466C66.7569 64.4688 66.5834 63.8213 66.2121 63.2119C65.8408 62.6024 65.277 62.0507 64.6962 61.1475" stroke="black" stroke-width="2" stroke-linecap="round"/>
<path d="M28.4774 39.1562C28.3869 38.2159 28.1021 28.4425 28.9592 21.4324C29.7264 15.1567 34.7567 10.3999 36.7556 7.59264C38.2371 5.51197 39.8882 3.56612 41.5459 1.7807C41.8624 1.43983 42.2031 1.23951 42.628 1.10342C43.0529 0.967326 43.5837 0.934181 44.0353 1.19958C46.0248 2.36894 46.0654 5.05397 46.5762 8.06464C47.1388 11.38 46.4254 13.8923 45.7458 14.6502C43.9735 16.6268 42.2692 17.2198 39.8733 21.4695C38.5784 23.7665 38.1511 25.9617 37.4874 28.2364C36.5746 31.5162 35.4215 34.8673 34.9701 36.6534C34.8887 37.0556 34.812 37.4375 34.4317 38.7199" stroke="black" stroke-width="2" stroke-linecap="round"/>
</svg>
