<svg width="28" height="61" viewBox="0 0 28 61" fill="none" xmlns="http://www.w3.org/2000/svg">
<path d="M23.8119 1.85055C24.991 2.47459 25.7597 2.91321 25.9613 3.01739C25.6996 3.46321 25.6019 3.7033 25.5144 3.89707C25.3515 4.27729 25.2034 4.79579 25.089 5.67393C24.7961 6.43582 24.4237 7.11789 23.8782 7.82037C23.4393 8.38556 22.6775 9.87723 21.6067 12.8883C21.2393 13.9215 20.7682 14.6834 18.8144 19.6805C17.8584 22.1256 16.5284 25.7912 15.7886 27.7087C14.9747 29.8181 14.6547 30.4673 14.4609 31.3078C14.3243 31.8998 14.1459 32.6408 13.6171 35.6607C13.1756 38.1821 12.4275 42.5971 12.0417 44.8998C11.6559 47.2025 11.6362 47.3881 11.5305 47.869C11.0511 50.0518 11.2127 51.5987 10.5471 51.3911C10.311 51.3174 10.0593 51.0587 9.74133 50.8584C9.11168 50.4616 8.36749 50.2599 7.50239 49.7857C6.30404 49.1288 4.62485 48.9916 2.82747 48.1469C2.4999 47.993 2.50671 47.6933 2.53648 47.466C2.58641 47.0848 2.70269 46.7882 2.74781 46.4583C2.90472 45.3108 3.05479 43.8381 3.35089 42.9038C3.79929 41.489 4.40162 39.6314 4.52085 38.7309C4.65487 37.7187 5.02509 35.0267 5.62224 31.5011C5.87924 29.9838 6.07804 28.9925 6.85361 26.1499C7.62918 23.3072 8.94174 18.7512 9.75052 15.9023C10.5593 13.0534 10.8431 11.9417 11.039 11.296C11.2921 10.4622 11.3703 10.0709 12.0454 8.52523C13.7364 4.65344 14.9783 1.95124 15.1077 1.52721C15.2185 1.16389 17.1851 0.883322 20.1344 1.04855C22.0707 1.15703 22.881 1.35781 23.8119 1.85055Z" fill="white" stroke="black" stroke-width="2" stroke-linecap="round"/>
<path d="M1.73342 55.8706C1.31066 51.3565 1.88791 48.7831 2.265 48.4059C2.7648 47.9059 10.5527 51.7177 10.3806 51.948C9.9939 52.4443 9.63459 52.8899 9.34322 53.2244C8.29217 54.3669 6.68108 56.2886 5.95457 57.007C5.09382 57.8581 3.71587 59.4781 2.78304 59.5355C2.61042 59.5461 2.38847 59.5187 2.31659 59.3609C2.02128 58.7129 1.89179 57.5616 1.73342 55.8706Z" fill="black" stroke="black" stroke-width="2" stroke-linecap="round"/>
</svg>
