<svg width="132" height="152" viewBox="0 0 132 152" fill="none" xmlns="http://www.w3.org/2000/svg">
<path d="M15.5377 101.821C14.666 101.821 10.3478 103.185 5.91773 106.261C3.5688 107.891 2.49508 110.208 1.53653 112.306C0.99746 113.485 0.879147 116.04 1.11645 119.122C1.38547 122.616 5.96628 124.332 9.94056 126.417C15.4824 129.324 22.6136 129.405 27.5206 129.48C31.3753 129.539 37.9994 129.704 51.4326 132.005C64.8658 134.306 84.907 138.754 96.7927 141.578C111.877 145.163 117.24 147.514 121.059 149.135C123.556 150.195 124.999 150.693 125.977 150.687C126.476 150.684 126.895 150.118 127.122 149.391C128.841 143.877 124.956 136.358 121.665 131.132C119.923 128.367 115.164 125.243 110.319 122.331C108.271 121.1 102.394 118.624 94.9587 114.716C91.0076 112.639 86.0604 111.426 76.3318 109.425C70.3401 108.192 62.1045 107.046 57.1965 106.388C50.9527 105.551 48.7944 105.647 44.9511 105.522C36.3978 105.479 26.906 105.416 20.1028 105.293C17.1778 105.233 15.3234 105.179 13.4128 104.873" stroke="black" stroke-width="2" stroke-linecap="round"/>
<path d="M20.0342 105.207C20.0342 105.167 20.0342 105.127 24.9325 98.7435C29.8308 92.3598 39.6275 79.6336 48.831 68.8029C58.0345 57.9722 66.348 49.4227 76.9368 40.3208C87.5257 31.2188 100.138 21.8235 109.184 15.4033C118.23 8.98317 123.327 5.82294 126.403 3.76467C129.48 1.7064 130.381 0.845853 130.768 1.02246C131.155 1.19906 131 2.43888 128.449 14.599C125.898 26.7591 120.956 49.8019 117.963 69.62C114.969 89.4381 114.076 105.333 113.581 113.928C113.019 123.334 112.768 124.95 112.42 126.384C112.253 127.039 112.105 127.544 111.953 128.598" stroke="black" stroke-width="2" stroke-linecap="round"/>
<path d="M104.905 93.7055C102.94 93.7055 97.7564 94.4307 95.7221 96.0251C93.232 97.9767 91.9516 103.322 91.6912 108.486C91.6426 109.45 92.2801 109.945 92.8313 110.355C96.0482 112.746 101.563 111.253 104.671 109.518C110.781 106.107 112.907 101.034 113.703 97.4158C114.514 93.7327 113.427 90.7905 112.631 89.8785C112.202 89.4798 111.72 89.2112 111.213 88.9695C110.706 88.7278 110.189 88.5211 108.656 88.0234" stroke="black" stroke-width="2" stroke-linecap="round"/>
<path d="M69.9524 84.6965C69.7671 84.6032 68.6645 84.5551 66.8151 84.7051C65.265 84.8308 63.835 86.4813 62.4454 88.4248C61.3256 89.9909 61.3153 91.9797 61.6089 93.5919C61.8252 94.7797 64.4446 94.6325 66.8501 94.4362C71.3721 94.0672 78.7825 84.1119 82.0048 79.5645C80.5566 76.943 77.1242 74.5256 74.782 73.2217C74.283 72.9695 73.7657 72.7056 73.2328 72.4336" stroke="black" stroke-width="2" stroke-linecap="round"/>
<path d="M112.945 24.9975C110.034 24.8662 103.851 25.3848 102.871 26.5308C100.815 28.9358 101.358 36.1111 102.028 40.2835C102.22 41.4762 103.789 41.9 105.29 42.2592C107.512 42.791 109.678 42.0437 111.113 41.0169C115.037 38.2093 117.26 32.0993 117.237 26.6972C116.985 25.5797 116.481 25.1337 115.946 24.8547C115.41 24.5756 114.857 24.477 113.72 23.834" stroke="black" stroke-width="2" stroke-linecap="round"/>
<path d="M75.6708 49.4287C75.7495 49.4287 76.6405 49.4287 78.2179 49.5864C80.9479 49.8592 82.006 53.4415 83.0498 55.7382C83.2878 56.262 83.344 56.7891 83.0024 57.4747C81.3396 60.8129 77.8994 62.0249 75.2695 62.8123C73.7774 63.2591 72.3944 62.5146 71.5246 61.7217C70.6133 60.8909 70.1726 59.6787 69.8666 58.1908C69.4156 55.9979 70.0685 53.9986 70.7627 52.8344C71.6122 51.8216 72.5741 51.0483 74.1639 50.5786C75.2671 50.4041 76.9722 50.3595 79.0239 50.4609" stroke="black" stroke-width="2" stroke-linecap="round"/>
</svg>
